<svg width="319" height="48" viewBox="0 0 319 48" fill="none" xmlns="http://www.w3.org/2000/svg">
<path d="M35.3883 0C35.2119 1.95014 35.0796 3.83379 34.9914 5.65097C34.9473 7.46814 34.9253 8.86427 34.9253 9.83934C34.9253 10.7258 34.9473 11.5679 34.9914 12.3657C35.0355 13.1634 35.0796 13.8283 35.1237 14.3601H33.6024C33.1614 11.1247 32.4779 8.57618 31.5518 6.71468C30.6258 4.80886 29.4131 3.47922 27.9138 2.72576C26.4586 1.92797 24.7387 1.52908 22.7544 1.52908H20.0424C18.7635 1.52908 17.7934 1.63989 17.1319 1.8615C16.4705 2.0831 16.0295 2.52632 15.809 3.19113C15.5885 3.85595 15.4783 4.87534 15.4783 6.24931V40.8199C15.4783 42.1939 15.5885 43.2133 15.809 43.8781C16.0295 44.5429 16.4705 44.9862 17.1319 45.2078C17.7934 45.4294 18.7635 45.5402 20.0424 45.5402H23.2835C25.2679 45.5402 27.0098 45.1191 28.5091 44.277C30.0525 43.3906 31.3534 41.9058 32.4117 39.8227C33.5142 37.7396 34.352 34.9252 34.9253 31.3795H36.4467C36.3144 32.7978 36.2482 34.6593 36.2482 36.964C36.2482 37.9834 36.2703 39.4238 36.3144 41.2853C36.3585 43.1468 36.4908 45.0748 36.7113 47.0693C34.4623 46.9806 31.9267 46.9363 29.1044 46.9363C26.2822 46.892 23.7686 46.8698 21.5637 46.8698C20.4613 46.8698 19.0502 46.8698 17.3304 46.8698C15.6105 46.8698 13.7585 46.892 11.7741 46.9363C9.78967 46.9363 7.78323 46.9584 5.75474 47.0028C3.72625 47.0028 1.808 47.0249 0 47.0693V45.7396C1.41112 45.651 2.46947 45.4737 3.17503 45.2078C3.88059 44.9418 4.34361 44.41 4.5641 43.6122C4.82869 42.8144 4.96098 41.6177 4.96098 40.0222V7.04709C4.96098 5.4072 4.82869 4.21052 4.5641 3.45706C4.34361 2.65928 3.85854 2.12742 3.10888 1.8615C2.40332 1.55125 1.36703 1.37396 0 1.32964V0C1.808 0.0443208 3.72625 0.0886421 5.75474 0.132963C7.78323 0.132963 9.78967 0.155122 11.7741 0.199443C13.7585 0.199443 15.6105 0.199443 17.3304 0.199443C19.0502 0.199443 20.4613 0.199443 21.5637 0.199443C23.5922 0.199443 25.8853 0.199443 28.4429 0.199443C31.0447 0.155122 33.3598 0.0886415 35.3883 0ZM25.0695 22.7368C25.0695 22.7368 25.0695 22.9584 25.0695 23.4017C25.0695 23.8449 25.0695 24.0665 25.0695 24.0665H13.4939C13.4939 24.0665 13.4939 23.8449 13.4939 23.4017C13.4939 22.9584 13.4939 22.7368 13.4939 22.7368H25.0695ZM26.9877 13.9612C26.8113 16.4875 26.7231 18.4155 26.7231 19.7452C26.7672 21.0748 26.7893 22.2936 26.7893 23.4017C26.7893 24.5097 26.8113 25.7285 26.8554 27.0582C26.8995 28.3878 27.0098 30.3158 27.1862 32.8421H25.6648C25.4443 31.2909 25.0254 29.8504 24.408 28.5208C23.8348 27.1911 22.9969 26.1274 21.8945 25.3296C20.792 24.4875 19.3588 24.0665 17.5949 24.0665V22.7368C18.9179 22.7368 20.0424 22.4709 20.9684 21.9391C21.8945 21.3629 22.6441 20.6316 23.2174 19.7452C23.8347 18.8144 24.3198 17.8393 24.6726 16.8199C25.0254 15.8006 25.29 14.8476 25.4664 13.9612H26.9877Z" fill="#3A715D"/>
<path d="M49.0667 47.5346C47.0823 47.5346 45.4286 47.1579 44.1057 46.4044C42.7828 45.651 41.8126 44.6537 41.1953 43.4127C40.5779 42.1274 40.2692 40.7313 40.2692 39.2244C40.2692 37.3186 40.6881 35.7673 41.526 34.5706C42.4079 33.374 43.5324 32.3989 44.8994 31.6454C46.2665 30.892 47.6996 30.2715 49.199 29.7839C50.7424 29.2964 52.1976 28.831 53.5646 28.3878C54.9757 27.9003 56.1002 27.3463 56.9381 26.7258C57.82 26.0609 58.261 25.2188 58.261 24.1994V19.0139C58.261 17.8615 58.0626 16.8421 57.6657 15.9557C57.3129 15.0249 56.7396 14.3158 55.9459 13.8283C55.1962 13.3407 54.204 13.097 52.9693 13.097C52.0874 13.097 51.2054 13.2299 50.3235 13.4958C49.4415 13.7175 48.7139 14.1163 48.1406 14.6925C49.3754 15.1357 50.3234 15.8227 50.9849 16.7535C51.6905 17.6399 52.0433 18.6593 52.0433 19.8116C52.0433 21.3186 51.5141 22.5152 50.4557 23.4017C49.4415 24.2881 48.2288 24.7313 46.8177 24.7313C45.2302 24.7313 44.0175 24.2438 43.1796 23.2687C42.3859 22.2493 41.989 21.0305 41.989 19.6122C41.989 18.3269 42.2977 17.2632 42.9151 16.4211C43.5765 15.5789 44.4805 14.7812 45.6271 14.0277C46.8618 13.3186 48.3391 12.7645 50.0589 12.3657C51.8228 11.9668 53.719 11.7673 55.7475 11.7673C57.7759 11.7673 59.606 11.9889 61.2376 12.4321C62.8692 12.831 64.2362 13.5845 65.3387 14.6925C66.3529 15.7119 67.0144 16.9751 67.3231 18.482C67.6318 19.9446 67.7861 21.8061 67.7861 24.0665V42.1496C67.7861 43.2576 67.8963 44.0332 68.1168 44.4765C68.3373 44.8753 68.7121 45.0748 69.2413 45.0748C69.6382 45.0748 70.013 44.964 70.3658 44.7424C70.7627 44.5208 71.1816 44.2548 71.6226 43.9446L72.2841 45.0748C71.358 45.8726 70.2776 46.4931 69.0429 46.9363C67.8522 47.3352 66.5073 47.5346 65.0079 47.5346C63.3763 47.5346 62.0755 47.313 61.1053 46.8698C60.1352 46.3823 59.4296 45.7396 58.9886 44.9418C58.5918 44.144 58.3933 43.2133 58.3933 42.1496C57.335 43.8338 56.0561 45.1634 54.5568 46.1385C53.0575 47.0693 51.2275 47.5346 49.0667 47.5346ZM53.7631 43.2798C54.645 43.2798 55.4388 43.0803 56.1443 42.6814C56.894 42.2382 57.5996 41.5291 58.261 40.554V26.9252C57.8641 27.59 57.3129 28.1884 56.6074 28.7202C55.9018 29.2521 55.1521 29.8061 54.3584 30.3823C53.5646 30.9141 52.7929 31.5125 52.0433 32.1773C51.3377 32.8421 50.7644 33.662 50.3235 34.6371C49.8825 35.6122 49.662 36.7867 49.662 38.1607C49.662 39.8892 50.0368 41.1745 50.7865 42.0166C51.5361 42.8587 52.5283 43.2798 53.7631 43.2798Z" fill="#3A715D"/>
<path d="M95.6058 11.7673C97.0169 11.7673 98.1635 12.0776 99.0454 12.6981C99.9274 13.2742 100.567 14.0277 100.964 14.9584C101.405 15.8892 101.625 16.8643 101.625 17.8837C101.625 19.5235 101.14 20.8753 100.17 21.9391C99.2439 22.9584 98.0091 23.4681 96.4657 23.4681C94.9223 23.4681 93.7096 23.0914 92.8277 22.338C91.9898 21.5402 91.5709 20.4986 91.5709 19.2133C91.5709 17.9723 91.8355 16.9529 92.3646 16.1551C92.9379 15.313 93.6435 14.6039 94.4813 14.0277C93.864 13.8504 93.2466 13.8726 92.6292 14.0942C91.7914 14.2271 90.9976 14.5817 90.248 15.1579C89.4983 15.6898 88.8589 16.3767 88.3297 17.2188C87.8006 18.0166 87.3816 18.903 87.0729 19.8781C86.7643 20.8089 86.6099 21.7175 86.6099 22.6039V40.2216C86.6099 42.349 87.117 43.7895 88.1313 44.5429C89.1896 45.2964 90.7551 45.6731 92.8277 45.6731V47.0693C91.8134 47.0249 90.3362 46.9806 88.3959 46.9363C86.4556 46.8476 84.4271 46.8033 82.3104 46.8033C80.5465 46.8033 78.7605 46.8476 76.9525 46.9363C75.1445 46.9806 73.7775 47.0249 72.8515 47.0693V45.6731C74.3949 45.6731 75.4753 45.3407 76.0926 44.6759C76.7541 44.0111 77.0848 42.7479 77.0848 40.8864V19.9446C77.0848 17.9501 76.7762 16.4875 76.1588 15.5568C75.5855 14.5817 74.4831 14.0942 72.8515 14.0942V12.6981C74.2626 12.831 75.6296 12.8975 76.9525 12.8975C78.8046 12.8975 80.5244 12.831 82.112 12.6981C83.7436 12.5208 85.2429 12.277 86.6099 11.9668V18.1496C87.1391 16.9529 87.8446 15.867 88.7266 14.892C89.6085 13.9169 90.6228 13.1634 91.7693 12.6316C92.9159 12.0554 94.1947 11.7673 95.6058 11.7673Z" fill="#3A715D"/>
<path d="M127.012 11.7673C128.864 11.7673 130.363 12.0111 131.51 12.4986C132.701 12.9418 133.627 13.5623 134.288 14.3601C134.994 15.2022 135.501 16.2881 135.809 17.6177C136.162 18.9474 136.339 20.7424 136.339 23.0028V40.8864C136.339 42.7479 136.647 44.0111 137.265 44.6759C137.926 45.3407 139.029 45.6731 140.572 45.6731V47.0693C139.734 47.0249 138.477 46.9806 136.802 46.9363C135.126 46.8476 133.472 46.8033 131.841 46.8033C130.165 46.8033 128.511 46.8476 126.88 46.9363C125.292 46.9806 124.079 47.0249 123.242 47.0693V45.6731C124.565 45.6731 125.491 45.3407 126.02 44.6759C126.549 44.0111 126.813 42.7479 126.813 40.8864V20.2105C126.813 19.1025 126.703 18.1496 126.483 17.3518C126.262 16.5097 125.865 15.867 125.292 15.4238C124.719 14.9363 123.859 14.6925 122.712 14.6925C121.522 14.6925 120.419 15.0249 119.405 15.6898C118.435 16.3546 117.641 17.2853 117.024 18.482C116.451 19.6344 116.164 20.9418 116.164 22.4044V40.8864C116.164 42.7479 116.429 44.0111 116.958 44.6759C117.531 45.3407 118.457 45.6731 119.736 45.6731V47.0693C118.942 47.0249 117.773 46.9806 116.23 46.9363C114.731 46.8476 113.165 46.8033 111.534 46.8033C109.858 46.8033 108.138 46.8476 106.374 46.9363C104.61 46.9806 103.287 47.0249 102.405 47.0693V45.6731C103.949 45.6731 105.029 45.3407 105.647 44.6759C106.308 44.0111 106.639 42.7479 106.639 40.8864V19.9446C106.639 17.9501 106.33 16.4875 105.713 15.5568C105.14 14.5817 104.037 14.0942 102.405 14.0942V12.6981C103.817 12.831 105.184 12.8975 106.507 12.8975C108.359 12.8975 110.078 12.831 111.666 12.6981C113.298 12.5208 114.797 12.277 116.164 11.9668V17.9501C117.266 15.6898 118.766 14.0942 120.662 13.1634C122.558 12.2327 124.675 11.7673 127.012 11.7673Z" fill="#3A715D"/>
<path d="M142.375 0C143.521 0.0443208 145.021 0.0886421 146.873 0.132963C148.725 0.177284 150.577 0.199443 152.429 0.199443C154.546 0.199443 156.596 0.177284 158.581 0.132963C160.565 0.0886421 161.976 0.0664814 162.814 0.0664814C168.282 0.0664814 172.361 1.04155 175.051 2.99169C177.785 4.94183 179.152 7.44598 179.152 10.5042C179.152 12.0554 178.689 13.6288 177.763 15.2244C176.837 16.8199 175.404 18.2382 173.464 19.4792C171.523 20.7202 169.01 21.6288 165.923 22.205V22.338C170.068 22.6482 173.354 23.4017 175.779 24.5983C178.204 25.795 179.946 27.2355 181.004 28.9197C182.063 30.6039 182.592 32.3546 182.592 34.1717C182.592 36.964 181.864 39.313 180.409 41.2188C178.954 43.1247 176.859 44.5873 174.125 45.6067C171.391 46.5817 168.128 47.0693 164.336 47.0693C163.277 47.0693 161.756 47.0471 159.771 47.0028C157.787 46.9141 155.384 46.8698 152.561 46.8698C150.621 46.8698 148.725 46.892 146.873 46.9363C145.021 46.9363 143.521 46.9806 142.375 47.0693V45.7396C143.786 45.651 144.844 45.4737 145.55 45.2078C146.256 44.9418 146.719 44.41 146.939 43.6122C147.204 42.8144 147.336 41.6177 147.336 40.0222V7.04709C147.336 5.4072 147.204 4.21052 146.939 3.45706C146.719 2.65928 146.233 2.12742 145.484 1.8615C144.778 1.55125 143.742 1.37396 142.375 1.32964V0ZM161.954 1.32964C160.234 1.32964 159.11 1.70637 158.581 2.45983C158.096 3.2133 157.853 4.74238 157.853 7.04709V40.0222C157.853 41.5734 157.963 42.7479 158.184 43.5457C158.449 44.3435 158.889 44.8753 159.507 45.1413C160.168 45.4072 161.138 45.5402 162.417 45.5402C165.592 45.5402 167.907 44.5429 169.363 42.5485C170.862 40.5097 171.612 37.6288 171.612 33.9058C171.612 30.4931 170.752 27.856 169.032 25.9945C167.356 24.133 164.556 23.2022 160.631 23.2022H155.009C155.009 23.2022 155.009 23.0249 155.009 22.6704C155.009 22.2715 155.009 22.072 155.009 22.072H160.698C162.77 22.072 164.358 21.5845 165.46 20.6094C166.562 19.59 167.334 18.2604 167.775 16.6205C168.216 14.9363 168.437 13.1413 168.437 11.2355C168.437 7.95568 167.93 5.49584 166.915 3.85595C165.901 2.17174 164.247 1.32964 161.954 1.32964Z" fill="#3A715D"/>
<path d="M201.898 11.7673C205.779 11.7673 208.822 12.9197 211.027 15.2244C213.232 17.5291 214.334 21.2964 214.334 26.5263H192.572L192.439 25.2632H206C206.044 23.0914 205.911 21.097 205.603 19.2798C205.294 17.4183 204.809 15.9335 204.147 14.8255C203.486 13.7175 202.604 13.1634 201.502 13.1634C199.958 13.1634 198.635 14.1385 197.533 16.0886C196.474 18.0388 195.835 21.2742 195.615 25.795L195.813 26.1939C195.769 26.7258 195.725 27.2798 195.681 27.856C195.681 28.4321 195.681 29.0305 195.681 29.651C195.681 32.7091 196.1 35.1911 196.937 37.097C197.819 39.0028 198.922 40.3989 200.245 41.2853C201.568 42.1274 202.913 42.5485 204.28 42.5485C205.206 42.5485 206.154 42.4155 207.124 42.1496C208.138 41.8393 209.152 41.3075 210.167 40.554C211.181 39.7562 212.129 38.6482 213.011 37.2299L214.202 37.6288C213.672 39.313 212.835 40.9529 211.688 42.5485C210.542 44.144 209.086 45.4515 207.322 46.4709C205.559 47.4903 203.442 48 200.972 48C197.974 48 195.328 47.3573 193.035 46.072C190.742 44.7867 188.934 42.8366 187.611 40.2216C186.332 37.6066 185.693 34.2826 185.693 30.2493C185.693 26.1274 186.376 22.6925 187.743 19.9446C189.154 17.1967 191.072 15.1579 193.498 13.8283C195.967 12.4543 198.768 11.7673 201.898 11.7673Z" fill="#3A715D"/>
<path d="M230.269 1.79501V12.6981H238.074V14.0277H230.269V40.8864C230.269 42.2161 230.512 43.169 230.997 43.7452C231.482 44.277 232.209 44.5429 233.179 44.5429C233.973 44.5429 234.767 44.2548 235.561 43.6787C236.355 43.0582 237.06 42.0166 237.677 40.554L238.802 41.1524C238.096 43.1468 237.016 44.7867 235.561 46.072C234.15 47.3573 232.209 48 229.74 48C228.285 48 227.006 47.8006 225.903 47.4017C224.801 47.0471 223.875 46.4931 223.125 45.7396C222.155 44.7645 221.516 43.5679 221.207 42.1496C220.898 40.687 220.744 38.8033 220.744 36.4986V14.0277H215.188V12.6981H220.744V3.92244C222.596 3.92244 224.294 3.76731 225.837 3.45706C227.425 3.10249 228.902 2.54847 230.269 1.79501Z" fill="#3A715D"/>
<path d="M250.327 1.79501V12.6981H258.133V14.0277H250.327V40.8864C250.327 42.2161 250.57 43.169 251.055 43.7452C251.54 44.277 252.268 44.5429 253.238 44.5429C254.032 44.5429 254.825 44.2548 255.619 43.6787C256.413 43.0582 257.118 42.0166 257.736 40.554L258.86 41.1524C258.155 43.1468 257.074 44.7867 255.619 46.072C254.208 47.3573 252.268 48 249.798 48C248.343 48 247.064 47.8006 245.962 47.4017C244.859 47.0471 243.933 46.4931 243.184 45.7396C242.213 44.7645 241.574 43.5679 241.265 42.1496C240.957 40.687 240.802 38.8033 240.802 36.4986V14.0277H235.246V12.6981H240.802V3.92244C242.654 3.92244 244.352 3.76731 245.896 3.45706C247.483 3.10249 248.96 2.54847 250.327 1.79501Z" fill="#3A715D"/>
<path d="M275.639 11.7673C279.519 11.7673 282.562 12.9197 284.767 15.2244C286.972 17.5291 288.074 21.2964 288.074 26.5263H266.312L266.18 25.2632H279.74C279.784 23.0914 279.652 21.097 279.343 19.2798C279.034 17.4183 278.549 15.9335 277.888 14.8255C277.226 13.7175 276.344 13.1634 275.242 13.1634C273.698 13.1634 272.376 14.1385 271.273 16.0886C270.215 18.0388 269.575 21.2742 269.355 25.795L269.553 26.1939C269.509 26.7258 269.465 27.2798 269.421 27.856C269.421 28.4321 269.421 29.0305 269.421 29.651C269.421 32.7091 269.84 35.1911 270.678 37.097C271.56 39.0028 272.662 40.3989 273.985 41.2853C275.308 42.1274 276.653 42.5485 278.02 42.5485C278.946 42.5485 279.894 42.4155 280.864 42.1496C281.879 41.8393 282.893 41.3075 283.907 40.554C284.921 39.7562 285.869 38.6482 286.751 37.2299L287.942 37.6288C287.413 39.313 286.575 40.9529 285.428 42.5485C284.282 44.144 282.827 45.4515 281.063 46.4709C279.299 47.4903 277.182 48 274.713 48C271.714 48 269.068 47.3573 266.775 46.072C264.482 44.7867 262.674 42.8366 261.351 40.2216C260.072 37.6066 259.433 34.2826 259.433 30.2493C259.433 26.1274 260.116 22.6925 261.483 19.9446C262.895 17.1967 264.813 15.1579 267.238 13.8283C269.708 12.4543 272.508 11.7673 275.639 11.7673Z" fill="#3A715D"/>
<path d="M312.948 11.7673C314.36 11.7673 315.506 12.0776 316.388 12.6981C317.27 13.2742 317.909 14.0277 318.306 14.9584C318.747 15.8892 318.968 16.8643 318.968 17.8837C318.968 19.5235 318.483 20.8753 317.513 21.9391C316.586 22.9584 315.352 23.4681 313.808 23.4681C312.265 23.4681 311.052 23.0914 310.17 22.338C309.332 21.5402 308.913 20.4986 308.913 19.2133C308.913 17.9723 309.178 16.9529 309.707 16.1551C310.281 15.313 310.986 14.6039 311.824 14.0277C311.207 13.8504 310.589 13.8726 309.972 14.0942C309.134 14.2271 308.34 14.5817 307.591 15.1579C306.841 15.6898 306.201 16.3767 305.672 17.2188C305.143 18.0166 304.724 18.903 304.416 19.8781C304.107 20.8089 303.953 21.7175 303.953 22.6039V40.2216C303.953 42.349 304.46 43.7895 305.474 44.5429C306.532 45.2964 308.098 45.6731 310.17 45.6731V47.0693C309.156 47.0249 307.679 46.9806 305.738 46.9363C303.798 46.8476 301.77 46.8033 299.653 46.8033C297.889 46.8033 296.103 46.8476 294.295 46.9363C292.487 46.9806 291.12 47.0249 290.194 47.0693V45.6731C291.737 45.6731 292.818 45.3407 293.435 44.6759C294.097 44.0111 294.427 42.7479 294.427 40.8864V19.9446C294.427 17.9501 294.119 16.4875 293.501 15.5568C292.928 14.5817 291.826 14.0942 290.194 14.0942V12.6981C291.605 12.831 292.972 12.8975 294.295 12.8975C296.147 12.8975 297.867 12.831 299.455 12.6981C301.086 12.5208 302.585 12.277 303.953 11.9668V18.1496C304.482 16.9529 305.187 15.867 306.069 14.892C306.951 13.9169 307.965 13.1634 309.112 12.6316C310.258 12.0554 311.537 11.7673 312.948 11.7673Z" fill="#3A715D"/>
</svg>
